
<svg id="RRLogo" xmlns="http://www.w3.org/2000/svg" viewBox="0 0 40.77 27">
  <g id="Right">
    <path id="Right-2" data-name="Right" d="M17.86,15.74v-5.58c0-1.43-.05-3.07-.14-4.92-.1-1.85-.22-3.3-.36-4.36L13.02,.25l-.13-.07,11.87-.18c2.38,.07,4.18,.52,5.52,1.42,1.34,.9,2.27,1.92,2.79,3.07,.52,1.15,.78,2.14,.78,2.97,0,1.14-.26,2.17-.78,3.06-.52,.9-1.2,1.61-2.03,2.14-.84,.53-1.69,.84-2.56,.94v.07c.82,.33,1.5,.76,2.04,1.3,.42,.42,.9,1.01,1.45,1.78,.54,.76,1.26,1.81,2.15,3.13,.89,1.33,1.61,2.36,2.15,3.11s1.04,1.35,1.5,1.82c1.01,1.01,2.01,1.52,3,1.52v.18h-3.14c-1.76,0-3.16-.53-4.19-1.59-.41-.41-.82-.89-1.22-1.45s-1.04-1.48-1.92-2.76c-.87-1.28-1.61-2.33-2.2-3.16-.6-.83-1.07-1.42-1.42-1.77-.52-.52-.99-.86-1.42-1.04-.43-.17-1.06-.26-1.89-.26-.76,0-1.35,.04-1.77,.13-.07,.65-.11,1.37-.11,2.17v3.34c0,1.41,.15,3.27,.45,5.58l4.5,.63v.18l-13.84,.15h0l4.66-.97c.18-1.22,.33-2.93,.43-5.13s.17-3.81,.17-4.82Zm.45-14.98V25.8h1.3V.76h-1.3Zm3.14,6.72v2.96c0,1.05,.04,2.02,.11,2.93,.47,.07,1.15,.11,2.04,.11,1.54,0,2.79-.26,3.73-.79,.95-.53,1.62-1.22,2.02-2.07,.4-.85,.6-1.78,.6-2.79s-.2-1.92-.59-2.76-.9-1.56-1.52-2.14c-.62-.58-1.31-1.04-2.08-1.35-.77-.32-1.52-.48-2.25-.48s-1.25,.05-1.64,.14c-.11,.7-.21,1.7-.3,3-.07,1.29-.12,2.37-.12,3.24ZM23.26,.45v.18c1.65,.04,3.03,.44,4.15,1.2,1.11,.77,1.92,1.7,2.43,2.81s.76,2.2,.76,3.29c0,2.41-1.05,4.15-3.14,5.22l.11,.07c1.23-.31,2.24-.98,3.04-2.01,.8-1.02,1.2-2.25,1.2-3.67,0-1.11-.22-2.11-.65-3.01-.43-.9-1.02-1.65-1.76-2.25-.74-.6-1.57-1.06-2.48-1.37-.92-.31-1.84-.47-2.76-.47h-.9Zm4.7,16l3.92,5.69c.94,1.34,1.78,2.29,2.51,2.86s1.6,.86,2.6,.88v-.18c-.95-.28-2.17-1.5-3.67-3.67l-3.14-4.52c-.67-.99-1.31-1.73-1.9-2.24-.59-.51-1.31-.84-2.17-1.01l-.07,.14c.68,.44,1.32,1.12,1.92,2.05Z"/>
  </g>
  <g id="Left">
    <path id="Left-2" data-name="Left" d="M9.92,22.19c-1.16,.85-2.41,1.58-3.75,2.18s-2.78,1.07-4.32,1.41c-.37,.08-.56,.27-.56,.58,0,.43,.28,.64,.83,.64,1.26,0,3.04-.6,5.32-1.79,1.9-1,4.08-2.54,6.53-4.62v.8l-.02,3.3v1.88l5.96-.07-.95-.47-.04-6.67-.05-7.58,.09-10.98,.65-.75c-3.25,0-7.67,.09-9.33,.29-1.66,.19-3.08,.56-4.24,1.09-1.9,.85-3.41,2.26-4.51,4.22-1.02,1.81-1.53,3.72-1.53,5.71,0,2.12,.57,4.13,1.71,6,1.84,3.03,4.58,4.63,8.21,4.83Zm1.71-1.21l-.87,.02c-2.48,0-4.57-.74-6.28-2.23-1.08-.93-1.91-2.1-2.49-3.5-.54-1.28-.81-2.59-.81-3.93,0-2.27,.69-4.29,2.06-6.08,1.05-1.39,2.36-2.36,3.93-2.93,1.58-.57,3.79-.87,6.66-.91l.16,13.02v3.52l-.02,.91c-.73,.75-1.51,1.46-2.34,2.11Z"/>
  </g>
</svg>